<svg xmlns="http://www.w3.org/2000/svg" version="1.1" xmlns:xlink="http://www.w3.org/1999/xlink" xmlns:svgjs="http://svgjs.com/svgjs" width="1000" height="1000"><rect width="1000" height="1000" rx="200" ry="200" fill="#ffffff"></rect><g transform="matrix(37.5,0,0,37.5,50.000200152397156,49.202891854569316)"><svg xmlns="http://www.w3.org/2000/svg" version="1.1" xmlns:xlink="http://www.w3.org/1999/xlink" xmlns:svgjs="http://svgjs.com/svgjs" width="24" height="24"><svg width="24" height="24" viewBox="0 0 24 24" fill="none" xmlns="http://www.w3.org/2000/svg">
<g clip-path="url(#clip0_2_21)">
<path d="M11.9953 0.0437111C11.7903 0.22274 11.5959 0.404094 11.4113 0.588704C7.4122 4.5878 8.18412 9.91403 9.80933 13.1956L14.2055 13.1956C15.8256 9.76755 16.6036 4.60361 12.6473 0.647295C12.4427 0.44269 12.2255 0.241341 11.9953 0.0437111ZM13.3443 11.8806L10.6631 11.8806C9.90141 9.98332 8.68494 5.53967 12.0019 1.87399C14.5706 4.67615 14.7412 8.37159 13.3443 11.8806ZM16.6036 10.0517C16.5227 10.4795 16.4269 10.8887 16.3167 11.2788C16.6441 11.7801 16.8654 12.4432 16.9217 13.1403C16.6529 12.8734 16.3088 12.6781 15.9075 12.5381C15.7819 12.8729 15.6527 13.1817 15.5234 13.469C16.625 13.9568 16.8994 14.8562 17.0296 15.8262C17.5866 15.178 17.9242 14.2507 17.9238 13.2533C17.9238 12.1791 17.5257 11.0259 16.6036 10.0517ZM8.09902 12.5399C7.69958 12.679 7.35687 12.8748 7.08856 13.1403C7.14529 12.4502 7.36338 11.7931 7.68423 11.2937C7.57356 10.891 7.48428 10.4734 7.40802 10.0512C6.48544 11.0249 6.08692 12.1786 6.08692 13.2537C6.08692 14.2498 6.42499 15.1784 6.9816 15.8262C7.11181 14.8552 7.38616 13.9559 8.4887 13.469C8.35013 13.1696 8.21993 12.8599 8.09902 12.5399ZM12.0056 9.24999C11.6419 9.24999 11.3481 8.95611 11.3481 8.59247C11.3481 8.22883 11.6419 7.93494 12.0056 7.93494C12.3697 7.93541 12.6636 8.2293 12.6636 8.59293C12.6636 8.95657 12.3688 9.25046 12.0056 9.24999ZM12.0047 4.64639C11.2792 4.64639 10.6901 5.23556 10.6896 5.96144C10.6896 6.68779 11.2792 7.27742 12.0051 7.27695C12.7315 7.27695 13.3206 6.68779 13.3206 5.96144C13.3206 5.23602 12.7315 4.64685 12.0047 4.64639ZM12.006 6.42226C11.7521 6.42226 11.5452 6.21533 11.5457 5.9619C11.5448 5.70894 11.7521 5.50154 12.006 5.50154C12.259 5.50154 12.4655 5.70894 12.4664 5.9619C12.4655 6.2158 12.259 6.42226 12.006 6.42226ZM10.8593 19.3486L10.0167 19.3486L10.026 14.5144H10.8686L10.8593 19.3486ZM14.0381 17.8969H13.1955L13.1825 14.5023L14.0251 14.5023L14.0381 17.8969ZM12.4213 21.8992L11.5787 21.8992L11.5834 15.9071L12.426 15.9071L12.4213 21.8992Z" fill="black"></path>
<path d="M5.359 6.08707C3.78378 7.44118 2.66013 9.24446 2.13869 11.2552C1.61726 13.2659 1.72295 15.388 2.4416 17.337C3.16025 19.286 4.45752 20.9687 6.1595 22.1596C7.86148 23.3505 9.88684 23.9926 11.9641 23.9999C14.0413 24.0073 16.0711 23.3794 17.7815 22.2006C19.4918 21.0217 20.8009 19.3482 21.5333 17.4043C22.2657 15.4605 22.3863 13.3392 21.8791 11.3248C21.3719 9.31044 20.261 7.49928 18.6953 6.13409L17.6972 7.27877C19.0294 8.44044 19.9747 9.9816 20.4063 11.6957C20.838 13.4097 20.7353 15.2148 20.1121 16.8689C19.4889 18.5229 18.375 19.947 16.9196 20.9501C15.4642 21.9532 13.737 22.4874 11.9694 22.4812C10.2019 22.475 8.47844 21.9286 7.03019 20.9152C5.58193 19.9019 4.47806 18.47 3.86654 16.8116C3.25503 15.1532 3.16509 13.3474 3.60879 11.6364C4.0525 9.92546 5.00863 8.391 6.34903 7.23876L5.359 6.08707Z" fill="black"></path>
</g>
<defs>
<clipPath id="clip0_2_21">
<rect width="24" height="24" fill="white"></rect>
</clipPath>
</defs>
</svg></svg></g></svg>